<?xml version="1.0" encoding="UTF-8"?>
<svg version="1.1" xmlns="http://www.w3.org/2000/svg" width="225" height="225">
<path d="M0 0 C74.25 0 148.5 0 225 0 C225 74.25 225 148.5 225 225 C150.75 225 76.5 225 0 225 C0 150.75 0 76.5 0 0 Z " fill="#FB555E" transform="translate(0,0)"/>
<path d="M0 0 C0.80066895 -0.00043808 1.60133789 -0.00087616 2.42626953 -0.00132751 C5.05608036 0.00075196 7.68524281 0.02404278 10.31494141 0.04760742 C12.14482271 0.05320638 13.97470853 0.05747506 15.80459595 0.06047058 C20.6083835 0.07189576 25.41189664 0.10134286 30.21557617 0.13458252 C35.12235808 0.16533363 40.02918455 0.17898668 44.93603516 0.1940918 C54.55464495 0.22621484 64.17305156 0.27738298 73.79150391 0.34057617 C73.87920774 4.19459747 73.93213126 8.04835908 73.97900391 11.90307617 C74.00414062 12.98911133 74.02927734 14.07514648 74.05517578 15.1940918 C74.11939171 22.23643882 73.86465556 27.67214091 69.17822266 33.26635742 C68.61748047 33.72397461 68.05673828 34.1815918 67.47900391 34.65307617 C66.92599609 35.12358398 66.37298828 35.5940918 65.80322266 36.07885742 C61.1715031 38.98379998 56.57439206 39.59640777 51.19458008 39.64697266 C49.90271286 39.66296005 48.61084564 39.67894745 47.27983093 39.69541931 C45.88138223 39.7017973 44.48292873 39.70718963 43.08447266 39.71166992 C41.63487156 39.72064898 40.18527134 39.72977103 38.735672 39.73902893 C35.70209511 39.75547801 32.66862804 39.76321147 29.63500977 39.76611328 C25.76816143 39.77149109 21.90236067 39.80916205 18.03580761 39.85485744 C15.04242788 39.88475838 12.04929642 39.89183964 9.05578041 39.89283943 C7.63134275 39.89701645 6.20690261 39.90934854 4.78261375 39.93035698 C-3.60190289 40.04418503 -10.50962253 39.83436844 -17.20849609 34.34057617 C-22.09184871 28.89149515 -22.55313525 23.33427052 -22.49365234 16.28979492 C-22.11303132 12.353235 -20.83539003 10.25934721 -18.20849609 7.34057617 C-17.58974609 6.61870117 -16.97099609 5.89682617 -16.33349609 5.15307617 C-11.24407798 0.8121019 -6.52552587 -0.09445014 0 0 Z " fill="#FEFDFD" transform="translate(72.20849609375,92.659423828125)"/>
<path d="M0 0 C0.81071457 -0.00073013 1.62142914 -0.00146027 2.45671082 -0.00221252 C5.10856506 0.00124194 7.75861292 0.03999843 10.41015625 0.0793457 C12.25959311 0.08868152 14.10904241 0.095794 15.95849609 0.1007843 C20.80522333 0.1197937 25.65119075 0.16884163 30.49761963 0.2243042 C35.45143356 0.275628 40.40537133 0.29832629 45.359375 0.32348633 C55.06413428 0.37696676 64.76833186 0.46220545 74.47265625 0.56762695 C74.589848 4.40069865 74.66023702 8.23330303 74.72265625 12.06762695 C74.75617188 13.1452832 74.7896875 14.22293945 74.82421875 15.33325195 C74.90879902 22.26883417 74.20802635 26.67723564 70.47265625 32.56762695 C65.40778046 37.49921654 60.10898072 39.9404728 53.04345703 39.95581055 C51.78840363 39.96526703 50.53335022 39.97472351 49.24026489 39.98446655 C47.88282961 39.97909515 46.52539724 39.97294177 45.16796875 39.96606445 C43.76081186 39.96808826 42.353656 39.97100225 40.94650269 39.97476196 C38.00280738 39.97917383 35.059386 39.97279328 32.11572266 39.95874023 C28.36110074 39.94168023 24.6071238 39.95147595 20.85252571 39.96945763 C17.94753251 39.98035351 15.04268948 39.97682219 12.1376915 39.96907425 C10.7543416 39.96708659 9.37097764 39.96948059 7.9876442 39.97651291 C-0.97400033 40.01206816 -8.40633176 39.8112061 -15.83984375 34.31762695 C-20.45647685 29.59363029 -21.68906542 25.56631719 -22.02734375 19.13012695 C-21.8386805 13.39948074 -20.32369649 9.81189061 -16.52734375 5.56762695 C-11.22637638 1.22572595 -6.75958183 -0.16259176 0 0 Z " fill="#FEFCFC" transform="translate(100.52734375,44.432373046875)"/>
<path d="M0 0 C3.99960899 -0.14638209 7.99852058 -0.23443323 12 -0.3125 C13.68802734 -0.3753418 13.68802734 -0.3753418 15.41015625 -0.43945312 C22.61922653 -0.54484889 27.47990134 0.17178422 33 5 C37.84784427 10.22075537 38.29665055 14.37830397 38.21484375 21.27734375 C37.72940309 27.42920084 34.48544863 31.04853335 30 35 C24.50529796 38.85282164 19.5248244 38.89705757 13 38 C7.29798138 35.84447115 3.91004841 32.35448908 1 27 C-0.0394775 23.8815675 -0.11494838 21.72524414 -0.09765625 18.45703125 C-0.09443359 17.38388672 -0.09121094 16.31074219 -0.08789062 15.20507812 C-0.07951172 14.08552734 -0.07113281 12.96597656 -0.0625 11.8125 C-0.05798828 10.68134766 -0.05347656 9.55019531 -0.04882812 8.38476562 C-0.03703498 5.58979073 -0.0205765 2.7949218 0 0 Z " fill="#FDFCFC" transform="translate(79,142)"/>
<path d="M0 0 C22.11 0 44.22 0 67 0 C63.74816729 3.25183271 59.0864357 2.43685064 54.67773438 2.56640625 C52.78130001 2.64563966 50.88913939 2.81589782 49 3 C48.67 3.66 48.34 4.32 48 5 C47.34 5 46.68 5 46 5 C46 5.66 46 6.32 46 7 C46.99 7 47.98 7 49 7 C49 7.66 49 8.32 49 9 C48.34 9 47.68 9 47 9 C47 9.66 47 10.32 47 11 C45.73929688 10.84273437 44.47859375 10.68546875 43.1796875 10.5234375 C39.65950256 10.13046738 36.17299991 9.89773564 32.6328125 9.7890625 C31.27542969 9.74652344 31.27542969 9.74652344 29.890625 9.703125 C28.0236575 9.65038581 26.15642759 9.6063223 24.2890625 9.5703125 C23.391875 9.539375 22.4946875 9.5084375 21.5703125 9.4765625 C20.76352051 9.45674316 19.95672852 9.43692383 19.12548828 9.41650391 C16.52070677 8.90607923 15.59220715 8.09157248 14 6 C14 5.34 14 4.68 14 4 C20.27 4.33 26.54 4.66 33 5 C33 3.68 33 2.36 33 1 C17.16 1.495 17.16 1.495 1 2 C0.67 1.34 0.34 0.68 0 0 Z " fill="#FA4562" transform="translate(63,132)"/>
<path d="M0 0 C4.54485191 -0.07703139 8.55447071 -0.01612098 13 1 C13.99 1 14.98 1 16 1 C24.28874136 1.09460461 32.57719174 1.21848564 40.86558819 1.33933926 C44.64954009 1.39442759 48.43349934 1.44785135 52.2175293 1.49731445 C55.88446552 1.545294 59.55131643 1.59763247 63.21814919 1.65294075 C64.60984992 1.6731964 66.00157366 1.69193516 67.39331627 1.70907402 C74.33458728 1.79556677 81.13430071 1.93047988 88 3 C88 3.66 88 4.32 88 5 C77.08237771 5.15365776 66.1646963 5.30183954 55.24690437 5.4429636 C50.17774501 5.5086614 45.10862593 5.57626991 40.03955078 5.64819336 C35.15076623 5.71748928 30.26193964 5.78183377 25.37304306 5.84269524 C23.5046437 5.86683478 21.63626681 5.89278093 19.76791763 5.92053413 C17.15797695 5.95899942 14.54803138 5.99113268 11.93798828 6.02172852 C11.1597168 6.03467453 10.38144531 6.04762054 9.57958984 6.06095886 C4.22810432 6.11405216 4.22810432 6.11405216 2 5 C2 4.34 2 3.68 2 3 C1.34 3 0.68 3 0 3 C0 2.01 0 1.02 0 0 Z " fill="#F84461" transform="translate(56,88)"/>
<path d="M0 0 C2.8346041 0.41994135 4.07389235 1.0619098 6.3125 2.9375 C11.27410731 6.74524514 16.74455311 7.24849773 22.85327148 7.31884766 C23.82040825 7.33391609 23.82040825 7.33391609 24.80708313 7.34928894 C26.91174528 7.37987148 29.01628177 7.39708546 31.12109375 7.4140625 C32.59083621 7.43279431 34.06056815 7.4523692 35.5302887 7.4727478 C39.3787106 7.52386263 43.22716728 7.56359812 47.07574463 7.60089111 C51.01086893 7.64106101 54.94585111 7.6920938 58.88085938 7.7421875 C66.58714173 7.83870193 74.29349343 7.92318413 82 8 C82 8.33 82 8.66 82 9 C74.3215487 9.93291711 66.66696472 10.24308864 58.93823242 10.4458313 C55.4039248 10.53862203 51.86994503 10.64258841 48.3359375 10.74609375 C47.62955139 10.76655258 46.92316528 10.78701141 46.19537354 10.80809021 C38.6647515 11.03075236 31.13868685 11.34911884 23.61279297 11.6953125 C18.40152127 11.92847061 13.21660596 12.04265916 8 12 C5 6.25 5 6.25 5 4 C3.68 4.33 2.36 4.66 1 5 C0.67 3.35 0.34 1.7 0 0 Z " fill="#FA475E" transform="translate(80,76)"/>
<path d="M0 0 C18.48 0 36.96 0 56 0 C56 0.66 56 1.32 56 2 C58.64 2.33 61.28 2.66 64 3 C64 3.33 64 3.66 64 4 C63.31619263 4.00808685 62.63238525 4.01617371 61.92785645 4.02450562 C54.78961065 4.1107825 47.65163517 4.21029581 40.51367188 4.31738281 C37.85222447 4.35664078 35.19086667 4.3904546 32.52929688 4.421875 C28.69643269 4.46770895 24.8639112 4.52567415 21.03125 4.5859375 C19.25578796 4.60326431 19.25578796 4.60326431 17.44445801 4.62094116 C11.29774806 4.72993439 5.88742077 5.1996621 0 7 C0 4.69 0 2.38 0 0 Z " fill="#FA4866" transform="translate(88,40)"/>
<path d="M0 0 C2.8346041 0.41994135 4.07389235 1.0619098 6.3125 2.9375 C9.56447449 5.43320136 12.04305167 6.06895333 16 7 C16 7.66 16 8.32 16 9 C23.92 9.33 31.84 9.66 40 10 C40 10.33 40 10.66 40 11 C36.16678585 11.1694836 32.33341274 11.3350741 28.5 11.5 C26.88351563 11.57154297 26.88351563 11.57154297 25.234375 11.64453125 C19.4831177 11.89001174 13.75643239 12.05588769 8 12 C5 6.25 5 6.25 5 4 C3.68 4.33 2.36 4.66 1 5 C0.67 3.35 0.34 1.7 0 0 Z " fill="#F64B68" transform="translate(80,76)"/>
<path d="M0 0 C2.13604308 3.20406462 2.24208908 3.99600747 2.1953125 7.66796875 C2.18886719 8.56064453 2.18242188 9.45332031 2.17578125 10.37304688 C2.15902344 11.30181641 2.14226562 12.23058594 2.125 13.1875 C2.11597656 14.12787109 2.10695313 15.06824219 2.09765625 16.03710938 C2.07409056 18.35832968 2.04119116 20.67903644 2 23 C1.34 23 0.68 23 0 23 C-0.33 24.32 -0.66 25.64 -1 27 C-1.99 26.34 -2.98 25.68 -4 25 C-3.83242187 24.19046875 -3.66484375 23.3809375 -3.4921875 22.546875 C-2.81270526 17.65028871 -3.02426758 12.85590382 -3.21484375 7.92578125 C-3.2578125 5.703125 -3.2578125 5.703125 -3 2 C-2.01 1.34 -1.02 0.68 0 0 Z " fill="#FA4665" transform="translate(76,141)"/>
<path d="M0 0 C3 2 3 2 4 3 C5.55948542 3.15686249 7.12542668 3.25076639 8.69140625 3.31640625 C10.10776367 3.37924805 10.10776367 3.37924805 11.55273438 3.44335938 C13.04256836 3.50233398 13.04256836 3.50233398 14.5625 3.5625 C16.05813477 3.62727539 16.05813477 3.62727539 17.58398438 3.69335938 C20.0558415 3.79980298 22.5278031 3.90181928 25 4 C25 4.33 25 4.66 25 5 C17.74 5 10.48 5 3 5 C3 11.93 3 18.86 3 26 C2.67 26 2.34 26 2 26 C1.97494385 25.43490723 1.9498877 24.86981445 1.92407227 24.28759766 C1.80820044 21.73316258 1.68543463 19.1791045 1.5625 16.625 C1.52318359 15.73554688 1.48386719 14.84609375 1.44335938 13.9296875 C1.40146484 13.07890625 1.35957031 12.228125 1.31640625 11.3515625 C1.27974854 10.56604004 1.24309082 9.78051758 1.20532227 8.97119141 C1.109109 6.92476504 1.109109 6.92476504 0 5 C-1.32 5.33 -2.64 5.66 -4 6 C-2.25 1.125 -2.25 1.125 0 0 Z " fill="#F98095" transform="translate(76,137)"/>
<path d="M0 0 C2.31 0 4.62 0 7 0 C7.11719175 3.83307169 7.18758077 7.66567608 7.25 11.5 C7.28351563 12.57765625 7.31703125 13.6553125 7.3515625 14.765625 C7.43607689 21.69580492 6.65195291 26.07635985 3 32 C2.34 30.68 1.68 29.36 1 28 C1.64453125 27.22398438 2.2890625 26.44796875 2.953125 25.6484375 C5.86483994 21.28086508 5.66990844 16.72901681 5.75 11.625 C5.77964844 10.69816406 5.80929688 9.77132812 5.83984375 8.81640625 C5.91011861 6.54418565 5.96302048 4.27296541 6 2 C4.68 2.33 3.36 2.66 2 3 C1.34 2.01 0.68 1.02 0 0 Z " fill="#FAF9F3" transform="translate(168,45)"/>
<path d="M0 0 C0.99 0 1.98 0 3 0 C3 1.32 3 2.64 3 4 C3.66 4 4.32 4 5 4 C4.34 6.31 3.68 8.62 3 11 C2.34 11 1.68 11 1 11 C0.67 12.65 0.34 14.3 0 16 C-0.3449145 14.66961551 -0.67516582 13.33542939 -1 12 C-1.226875 11.236875 -1.45375 10.47375 -1.6875 9.6875 C-2.10405515 6.10512569 -1.12920402 3.38761205 0 0 Z " fill="#F74767" transform="translate(74,56)"/>
<path d="M0 0 C2.97 0 5.94 0 9 0 C8.5875 0.66 8.175 1.32 7.75 2 C5.65786316 5.5865203 3.82272665 9.27127492 2 13 C1.67 13 1.34 13 1 13 C-0.10228696 8.59085217 -0.07654536 4.51617599 0 0 Z " fill="#F64F6E" transform="translate(48,96)"/>
<path d="M0 0 C2.49361571 1.20381448 4.68143083 2.45428722 7 4 C6.67 4.99 6.34 5.98 6 7 C6.99 7.33 7.98 7.66 9 8 C9 8.66 9 9.32 9 10 C8.01 10.33 7.02 10.66 6 11 C4.30485863 10.04906703 2.63631892 9.04892238 1 8 C0.34 8 -0.32 8 -1 8 C-0.7525 7.13375 -0.7525 7.13375 -0.5 6.25 C0.14462031 3.73335631 0.14462031 3.73335631 0 0 Z " fill="#F84965" transform="translate(81,173)"/>
<path d="M0 0 C0.33 0 0.66 0 1 0 C1.02505615 0.64026123 1.0501123 1.28052246 1.07592773 1.94018555 C1.1923546 4.85613726 1.31486867 7.7718029 1.4375 10.6875 C1.47681641 11.69490234 1.51613281 12.70230469 1.55664062 13.74023438 C1.59853516 14.71669922 1.64042969 15.69316406 1.68359375 16.69921875 C1.72025146 17.59471436 1.75690918 18.49020996 1.79467773 19.4128418 C1.93643408 22.04144977 1.93643408 22.04144977 2.64477539 24.70629883 C2.76199951 25.46322021 2.87922363 26.2201416 3 27 C2.34 27.66 1.68 28.32 1 29 C0.01 29 -0.98 29 -2 29 C-1.84152588 28.29335205 -1.68305176 27.5867041 -1.51977539 26.85864258 C-0.99240834 23.95824766 -0.7938145 21.2061873 -0.68359375 18.26171875 C-0.64169922 17.19501953 -0.59980469 16.12832031 -0.55664062 15.02929688 C-0.51732422 13.92650391 -0.47800781 12.82371094 -0.4375 11.6875 C-0.39431641 10.56537109 -0.35113281 9.44324219 -0.30664062 8.28710938 C-0.20085213 5.52485431 -0.09876328 2.7625137 0 0 Z " fill="#F87E84" transform="translate(146,93)"/>
<path d="M0 0 C0.66 0.66 1.32 1.32 2 2 C1 5 1 5 -1 6 C-0.38487182 11.00890086 0.2717552 16.00632136 1 21 C0.34 21.33 -0.32 21.66 -1 22 C-2.74893812 18.20947276 -3.29655519 15.16690915 -3.3125 11 C-3.32925781 9.989375 -3.34601562 8.97875 -3.36328125 7.9375 C-2.95275089 4.61794266 -1.89579443 2.72114029 0 0 Z " fill="#F9EFED" transform="translate(53,101)"/>
<path d="M0 0 C3.74596154 3.21082417 5.46536141 7.39608423 7 12 C3.25 13.125 3.25 13.125 1 12 C0.5859375 10.0390625 0.5859375 10.0390625 0.375 7.625 C0.30023438 6.83351563 0.22546875 6.04203125 0.1484375 5.2265625 C0.03250218 3.48753275 0 1.74288998 0 0 Z " fill="#F74B6B" transform="translate(48,115)"/>
<path d="M0 0 C0.598125 0.165 1.19625 0.33 1.8125 0.5 C4.11344336 1.1114124 4.11344336 1.1114124 7 1 C7.33 2.98 7.66 4.96 8 7 C7.01 7.33 6.02 7.66 5 8 C4.16382818 6.8562364 3.33113541 5.70992861 2.5 4.5625 C2.0359375 3.92441406 1.571875 3.28632813 1.09375 2.62890625 C0 1 0 1 0 0 Z " fill="#F9F0F0" transform="translate(80,168)"/>
<path d="M0 0 C6.0546875 -0.1953125 6.0546875 -0.1953125 8 0 C8.66 0.66 9.32 1.32 10 2 C6.1496895 4.56687367 4.41430237 3.83288724 0 3 C0 2.01 0 1.02 0 0 Z " fill="#FA4767" transform="translate(56,88)"/>
<path d="M0 0 C1.98 0 3.96 0 6 0 C6 0.66 6 1.32 6 2 C7.65 2.33 9.3 2.66 11 3 C9 5 9 5 6.5 5.25 C4 5 4 5 2 3 C1.01 2.67 0.02 2.34 -1 2 C-0.67 1.34 -0.34 0.68 0 0 Z " fill="#F94A67" transform="translate(58,131)"/>
<path d="M0 0 C0.99 0 1.98 0 3 0 C2.814375 0.9075 2.62875 1.815 2.4375 2.75 C1.81366385 5.8437466 1.81366385 5.8437466 2.5625 8.1875 C2.706875 8.785625 2.85125 9.38375 3 10 C2.34 10.99 1.68 11.98 1 13 C-0.10228696 8.59085217 -0.07654536 4.51617599 0 0 Z " fill="#F74566" transform="translate(48,96)"/>
<path d="M0 0 C2.40201504 4.19879794 2.15864149 7.24075541 2 12 C1.01 12.33 0.02 12.66 -1 13 C-2.40742022 10.18515955 -1.66652164 8.43063887 -1.0625 5.375 C-0.86785156 4.37210938 -0.67320313 3.36921875 -0.47265625 2.3359375 C-0.31667969 1.56507813 -0.16070312 0.79421875 0 0 Z " fill="#F76777" transform="translate(117,158)"/>
<path d="M0 0 C0.99 0.33 1.98 0.66 3 1 C2.67 2.65 2.34 4.3 2 6 C1.34 6 0.68 6 0 6 C0 5.34 0 4.68 0 4 C-1.65 4.33 -3.3 4.66 -5 5 C-3.35 3.35 -1.7 1.7 0 0 Z " fill="#F7666D" transform="translate(141,125)"/>
<path d="M0 0 C1.98 0.66 3.96 1.32 6 2 C4.68 3.32 3.36 4.64 2 6 C1.01 5.01 0.02 4.02 -1 3 C-0.67 2.01 -0.34 1.02 0 0 Z " fill="#FAF4F4" transform="translate(138,120)"/>
</svg>
